<mxfile host="app.diagrams.net" agent="Mozilla/5.0 (Windows NT 10.0; Win64; x64) AppleWebKit/537.36 (KHTML, like Gecko) Chrome/141.0.0.0 Safari/537.36" version="28.2.3">
  <diagram id="diagram-1" name="Page-1">
    <mxGraphModel dx="1042" dy="562" grid="0" gridSize="10" guides="1" tooltips="1" connect="1" arrows="1" fold="1" page="1" pageScale="1" pageWidth="850" pageHeight="1100" math="0" shadow="0">
      <root>
        <mxCell id="0" />
        <mxCell id="1" parent="0" />
        <mxCell id="2" value="2&lt;sup&gt;st&lt;/sup&gt; Level DFD (2.0) - Hospital Management System" style="text;html=1;strokeColor=none;fillColor=none;align=center;verticalAlign=middle;whiteSpace=wrap;rounded=0;fontSize=14;fontStyle=1;" parent="1" vertex="1">
          <mxGeometry x="175" y="20" width="450" height="30" as="geometry" />
        </mxCell>
        <mxCell id="3" value="Hospital Staff" style="shape=rectangle;whiteSpace=wrap;html=1;" parent="1" vertex="1">
          <mxGeometry x="40" y="140" width="120" height="40" as="geometry" />
        </mxCell>
        <mxCell id="4" value="2.0&lt;br&gt;Login" style="ellipse;whiteSpace=wrap;html=1;" parent="1" vertex="1">
          <mxGeometry x="350" y="80" width="120" height="60" as="geometry" />
        </mxCell>
        <mxCell id="5" value="2.1&lt;br&gt;Add Room" style="ellipse;whiteSpace=wrap;html=1;" parent="1" vertex="1">
          <mxGeometry x="353" y="219" width="120" height="60" as="geometry" />
        </mxCell>
        <mxCell id="6" value="2.2&lt;br&gt;Update Rate" style="ellipse;whiteSpace=wrap;html=1;" parent="1" vertex="1">
          <mxGeometry x="353" y="353" width="120" height="60" as="geometry" />
        </mxCell>
        <mxCell id="7" value="2.3&lt;br&gt;Delete Room" style="ellipse;whiteSpace=wrap;html=1;" parent="1" vertex="1">
          <mxGeometry x="359" y="461" width="120" height="60" as="geometry" />
        </mxCell>
        <mxCell id="8" value="2.4&lt;br&gt;Reports" style="ellipse;whiteSpace=wrap;html=1;" parent="1" vertex="1">
          <mxGeometry x="359" y="574" width="120" height="60" as="geometry" />
        </mxCell>
        <mxCell id="9" value="RoomMst" style="shape=partialRectangle;whiteSpace=wrap;html=1;bottom=1;right=0;left=0;top=1;fillColor=none;" parent="1" vertex="1">
          <mxGeometry x="652" y="238" width="100" height="30" as="geometry" />
        </mxCell>
        <mxCell id="10" value="RoomMst" style="shape=partialRectangle;whiteSpace=wrap;html=1;bottom=1;right=0;left=0;top=1;fillColor=none;" parent="1" vertex="1">
          <mxGeometry x="666" y="353" width="100" height="30" as="geometry" />
        </mxCell>
        <mxCell id="11" value="RoomMst" style="shape=partialRectangle;whiteSpace=wrap;html=1;bottom=1;right=0;left=0;top=1;fillColor=none;" parent="1" vertex="1">
          <mxGeometry x="660" y="468" width="100" height="30" as="geometry" />
        </mxCell>
        <mxCell id="12" value="RoomMst" style="shape=partialRectangle;whiteSpace=wrap;html=1;bottom=1;right=0;left=0;top=1;fillColor=none;" parent="1" vertex="1">
          <mxGeometry x="676" y="591" width="100" height="30" as="geometry" />
        </mxCell>
        <mxCell id="13" value="" style="endArrow=classic;html=1;rounded=0;" parent="1" source="4" target="5" edge="1">
          <mxGeometry width="50" height="50" relative="1" as="geometry">
            <mxPoint x="380" y="190" as="sourcePoint" />
            <mxPoint x="430" y="240" as="targetPoint" />
          </mxGeometry>
        </mxCell>
        <mxCell id="14" value="" style="endArrow=classic;html=1;rounded=0;" parent="1" source="5" target="6" edge="1">
          <mxGeometry width="50" height="50" relative="1" as="geometry">
            <mxPoint x="380" y="290" as="sourcePoint" />
            <mxPoint x="380" y="330" as="targetPoint" />
          </mxGeometry>
        </mxCell>
        <mxCell id="15" value="" style="endArrow=classic;html=1;rounded=0;" parent="1" source="6" target="7" edge="1">
          <mxGeometry width="50" height="50" relative="1" as="geometry">
            <mxPoint x="380" y="410" as="sourcePoint" />
            <mxPoint x="380" y="450" as="targetPoint" />
          </mxGeometry>
        </mxCell>
        <mxCell id="16" value="" style="endArrow=classic;html=1;rounded=0;" parent="1" source="7" target="8" edge="1">
          <mxGeometry width="50" height="50" relative="1" as="geometry">
            <mxPoint x="380" y="530" as="sourcePoint" />
            <mxPoint x="380" y="570" as="targetPoint" />
          </mxGeometry>
        </mxCell>
        <mxCell id="17" value="Reqest to Login" style="endArrow=classic;html=1;rounded=0;entryX=0;entryY=0.25;" parent="1" source="3" target="4" edge="1">
          <mxGeometry width="50" height="50" relative="1" as="geometry">
            <mxPoint x="170" y="125" as="sourcePoint" />
            <mxPoint x="310" y="125" as="targetPoint" />
            <Array as="points">
              <mxPoint x="242" y="75" />
            </Array>
          </mxGeometry>
        </mxCell>
        <mxCell id="18" value="Response" style="endArrow=classic;html=1;rounded=0;exitX=0;exitY=0.75;" parent="1" source="4" target="3" edge="1">
          <mxGeometry x="-0.0446" y="-18" width="50" height="50" relative="1" as="geometry">
            <mxPoint x="310" y="155" as="sourcePoint" />
            <mxPoint x="170" y="155" as="targetPoint" />
            <mxPoint as="offset" />
          </mxGeometry>
        </mxCell>
        <mxCell id="21" value="Send New Rate" style="endArrow=classic;html=1;rounded=0;entryX=0;entryY=0.25;" parent="1" source="3" target="6" edge="1">
          <mxGeometry width="50" height="50" relative="1" as="geometry">
            <mxPoint x="160" y="355" as="sourcePoint" />
            <mxPoint x="320" y="355" as="targetPoint" />
            <Array as="points">
              <mxPoint x="219" y="287" />
            </Array>
          </mxGeometry>
        </mxCell>
        <mxCell id="22" value="Response" style="endArrow=classic;html=1;rounded=0;exitX=0.013;exitY=0.617;exitDx=0;exitDy=0;exitPerimeter=0;" parent="1" source="6" edge="1">
          <mxGeometry width="50" height="50" relative="1" as="geometry">
            <mxPoint x="300.07436854000525" y="383.41640786499875" as="sourcePoint" />
            <mxPoint x="94.00121274644879" y="180" as="targetPoint" />
            <Array as="points">
              <mxPoint x="189" y="315" />
            </Array>
          </mxGeometry>
        </mxCell>
        <mxCell id="27" value="Insert Data" style="endArrow=classic;html=1;rounded=0;" parent="1" source="5" target="9" edge="1">
          <mxGeometry width="50" height="50" relative="1" as="geometry">
            <mxPoint x="450" y="250" as="sourcePoint" />
            <mxPoint x="550" y="250" as="targetPoint" />
          </mxGeometry>
        </mxCell>
        <mxCell id="28" value="Reply" style="endArrow=classic;html=1;rounded=0;entryX=1;entryY=1;entryDx=0;entryDy=0;" parent="1" target="5" edge="1">
          <mxGeometry width="50" height="50" relative="1" as="geometry">
            <mxPoint x="643.01" y="265.97416149068323" as="sourcePoint" />
            <mxPoint x="430.9995864468772" y="263.99890919049875" as="targetPoint" />
          </mxGeometry>
        </mxCell>
        <mxCell id="29" value="Update Data" style="endArrow=classic;html=1;rounded=0;" parent="1" source="6" target="10" edge="1">
          <mxGeometry width="50" height="50" relative="1" as="geometry">
            <mxPoint x="450" y="370" as="sourcePoint" />
            <mxPoint x="550" y="370" as="targetPoint" />
          </mxGeometry>
        </mxCell>
        <mxCell id="30" value="Reply" style="endArrow=classic;html=1;rounded=0;entryX=0.938;entryY=0.68;entryDx=0;entryDy=0;entryPerimeter=0;" parent="1" target="6" edge="1">
          <mxGeometry width="50" height="50" relative="1" as="geometry">
            <mxPoint x="655" y="384" as="sourcePoint" />
            <mxPoint x="429.99574875119174" y="384.34288244790963" as="targetPoint" />
          </mxGeometry>
        </mxCell>
        <mxCell id="31" value="Remove Data" style="endArrow=classic;html=1;rounded=0;" parent="1" source="7" target="11" edge="1">
          <mxGeometry width="50" height="50" relative="1" as="geometry">
            <mxPoint x="450" y="490" as="sourcePoint" />
            <mxPoint x="550" y="490" as="targetPoint" />
          </mxGeometry>
        </mxCell>
        <mxCell id="32" value="Reply" style="endArrow=classic;html=1;rounded=0;" parent="1" edge="1">
          <mxGeometry width="50" height="50" relative="1" as="geometry">
            <mxPoint x="655" y="495" as="sourcePoint" />
            <mxPoint x="479" y="503" as="targetPoint" />
          </mxGeometry>
        </mxCell>
        <mxCell id="33" value="Req. for View" style="endArrow=classic;html=1;rounded=0;" parent="1" source="8" target="12" edge="1">
          <mxGeometry width="50" height="50" relative="1" as="geometry">
            <mxPoint x="450" y="610" as="sourcePoint" />
            <mxPoint x="550" y="610" as="targetPoint" />
          </mxGeometry>
        </mxCell>
        <mxCell id="34" value="Display Data" style="endArrow=classic;html=1;rounded=0;" parent="1" edge="1">
          <mxGeometry width="50" height="50" relative="1" as="geometry">
            <mxPoint x="669.02" y="620.9980346820809" as="sourcePoint" />
            <mxPoint x="474" y="621" as="targetPoint" />
          </mxGeometry>
        </mxCell>
        <mxCell id="37" value="DFD 2nd Level (2.0) - Healthcare System" style="text;html=1;strokeColor=none;fillColor=none;align=center;verticalAlign=middle;whiteSpace=wrap;rounded=0;" parent="1" vertex="1">
          <mxGeometry x="175" y="700" width="450" height="30" as="geometry" />
        </mxCell>
        <mxCell id="38" value="" style="endArrow=classic;html=1;rounded=0;fontSize=12;startSize=8;endSize=8;curved=1;entryX=1;entryY=1;entryDx=0;entryDy=0;exitX=0;exitY=0.5;exitDx=0;exitDy=0;" parent="1" source="5" target="3" edge="1">
          <mxGeometry width="50" height="50" relative="1" as="geometry">
            <mxPoint x="380" y="399" as="sourcePoint" />
            <mxPoint x="430" y="349" as="targetPoint" />
          </mxGeometry>
        </mxCell>
        <mxCell id="39" value="" style="endArrow=classic;html=1;rounded=0;fontSize=12;startSize=8;endSize=8;curved=1;exitX=1;exitY=0.75;exitDx=0;exitDy=0;entryX=0;entryY=0;entryDx=0;entryDy=0;" parent="1" source="3" target="5" edge="1">
          <mxGeometry width="50" height="50" relative="1" as="geometry">
            <mxPoint x="380" y="338" as="sourcePoint" />
            <mxPoint x="430" y="288" as="targetPoint" />
          </mxGeometry>
        </mxCell>
        <mxCell id="40" value="" style="endArrow=classic;html=1;rounded=0;fontSize=12;startSize=8;endSize=8;curved=1;exitX=0.193;exitY=0.985;exitDx=0;exitDy=0;exitPerimeter=0;entryX=0.055;entryY=0.347;entryDx=0;entryDy=0;entryPerimeter=0;" parent="1" source="3" target="7" edge="1">
          <mxGeometry width="50" height="50" relative="1" as="geometry">
            <mxPoint x="118" y="303" as="sourcePoint" />
            <mxPoint x="430" y="501" as="targetPoint" />
            <Array as="points">
              <mxPoint x="174" y="410" />
            </Array>
          </mxGeometry>
        </mxCell>
        <mxCell id="44" value="send room&lt;div&gt;id&lt;/div&gt;" style="edgeLabel;html=1;align=center;verticalAlign=middle;resizable=0;points=[];fontSize=12;" parent="40" vertex="1" connectable="0">
          <mxGeometry x="0.3661" y="22" relative="1" as="geometry">
            <mxPoint y="-1" as="offset" />
          </mxGeometry>
        </mxCell>
        <mxCell id="41" value="" style="endArrow=classic;html=1;rounded=0;fontSize=12;startSize=8;endSize=8;curved=1;entryX=0;entryY=1;entryDx=0;entryDy=0;exitX=0;exitY=0.5;exitDx=0;exitDy=0;" parent="1" edge="1">
          <mxGeometry width="50" height="50" relative="1" as="geometry">
            <mxPoint x="376" y="491" as="sourcePoint" />
            <mxPoint x="57" y="180" as="targetPoint" />
            <Array as="points">
              <mxPoint x="259" y="455" />
              <mxPoint x="180" y="391" />
              <mxPoint x="117" y="291" />
            </Array>
          </mxGeometry>
        </mxCell>
        <mxCell id="45" value="response" style="edgeLabel;html=1;align=center;verticalAlign=middle;resizable=0;points=[];fontSize=12;" parent="41" vertex="1" connectable="0">
          <mxGeometry x="-0.339" relative="1" as="geometry">
            <mxPoint x="-4" y="7" as="offset" />
          </mxGeometry>
        </mxCell>
        <mxCell id="42" value="" style="endArrow=classic;html=1;rounded=0;fontSize=12;startSize=8;endSize=8;curved=1;entryX=0;entryY=0.5;entryDx=0;entryDy=0;" parent="1" source="8" target="3" edge="1">
          <mxGeometry width="50" height="50" relative="1" as="geometry">
            <mxPoint x="394" y="455" as="sourcePoint" />
            <mxPoint x="444" y="405" as="targetPoint" />
            <Array as="points">
              <mxPoint x="26" y="548" />
            </Array>
          </mxGeometry>
        </mxCell>
        <mxCell id="47" value="response" style="edgeLabel;html=1;align=center;verticalAlign=middle;resizable=0;points=[];fontSize=12;" parent="42" vertex="1" connectable="0">
          <mxGeometry x="-0.572" y="-25" relative="1" as="geometry">
            <mxPoint as="offset" />
          </mxGeometry>
        </mxCell>
        <mxCell id="43" value="" style="endArrow=classic;html=1;rounded=0;fontSize=12;startSize=8;endSize=8;curved=1;entryX=0.042;entryY=0.317;entryDx=0;entryDy=0;entryPerimeter=0;exitX=0.087;exitY=0.985;exitDx=0;exitDy=0;exitPerimeter=0;" parent="1" edge="1">
          <mxGeometry width="50" height="50" relative="1" as="geometry">
            <mxPoint x="45.400000000000055" y="177.37999999999997" as="sourcePoint" />
            <mxPoint x="358.99999999999994" y="591" as="targetPoint" />
            <Array as="points">
              <mxPoint x="57.96" y="176.98" />
              <mxPoint x="94.96" y="513.98" />
            </Array>
          </mxGeometry>
        </mxCell>
        <mxCell id="46" value="request view" style="edgeLabel;html=1;align=center;verticalAlign=middle;resizable=0;points=[];fontSize=12;" parent="43" vertex="1" connectable="0">
          <mxGeometry x="0.4034" y="22" relative="1" as="geometry">
            <mxPoint x="21" y="-13" as="offset" />
          </mxGeometry>
        </mxCell>
      </root>
    </mxGraphModel>
  </diagram>
</mxfile>
